<svg id="Layer_1" data-name="Layer 1" xmlns="http://www.w3.org/2000/svg" viewBox="0 0 831.32 27.76"><defs><style>.cls-1,.cls-2{fill:#cfbe2b;}.cls-1{stroke:#cfbe2b;stroke-miterlimit:10;}</style></defs><path class="cls-1" d="M6.54,281.78v26.76H836.86V281.78Zm811.53,26.09H25.34V282.45H818.07Z" transform="translate(-6.04 -281.28)"/><rect class="cls-2" x="512.97" y="3.52" width="3.05" height="20.74"/><polygon class="cls-2" points="417.5 3.52 417.48 3.52 417.48 3.5 315.93 3.5 315.93 3.5 315.92 3.5 315.92 22.27 220.43 22.27 220.43 3.5 220.3 3.5 220.3 3.5 118.75 3.5 118.75 3.5 118.74 3.5 118.74 22.23 17.59 22.23 17.59 24.23 118.74 24.23 118.74 24.24 121.79 24.24 121.79 5.5 217.38 5.5 217.38 24.24 217.43 24.24 217.43 24.27 318.99 24.27 318.99 22.27 318.97 22.27 318.97 5.5 414.45 5.5 414.45 22.24 414.42 22.24 414.42 24.24 414.45 24.24 414.45 24.26 417.5 24.26 417.5 24.24 515.97 24.24 515.97 22.24 417.5 22.24 417.5 3.52"/><polygon class="cls-2" points="811.6 3.46 710.05 3.46 710.05 3.46 710.03 3.46 710.03 22.28 614.49 22.28 614.49 5.49 614.54 5.49 614.54 3.48 512.99 3.48 512.99 5.49 611.44 5.49 611.44 22.28 611.43 22.28 611.43 24.28 712.99 24.28 712.99 24.2 713.08 24.2 713.08 5.47 811.6 5.47 811.6 3.46"/><polygon class="cls-2" points="110.99 16.51 110.99 5.49 111 5.49 111 3.48 29.76 3.48 29.76 5.38 29.75 5.38 29.75 18.4 29.78 18.4 29.78 18.4 57.24 18.4 57.24 18.41 60.29 18.41 60.29 11.05 57.24 11.05 57.24 16.4 32.8 16.4 32.8 5.49 68.85 5.49 68.85 24.24 71.9 24.24 71.9 5.49 107.94 5.49 107.94 16.51 83.59 16.51 83.59 11.15 80.55 11.15 80.55 18.52 80.55 18.52 80.55 18.52 111 18.52 111 16.51 110.99 16.51"/><polygon class="cls-2" points="308.28 16.42 308.28 5.39 308.29 5.39 308.29 3.38 227.05 3.38 227.05 5.29 227.04 5.29 227.04 18.3 227.07 18.3 227.07 18.31 254.53 18.31 254.53 18.31 257.58 18.31 257.58 10.95 254.53 10.95 254.53 16.3 230.09 16.3 230.09 5.39 266.15 5.39 266.15 24.15 269.19 24.15 269.19 5.39 305.24 5.39 305.24 16.42 280.88 16.42 280.88 11.06 277.84 11.06 277.84 18.42 277.84 18.42 277.84 18.42 308.29 18.42 308.29 16.42 308.28 16.42"/><polygon class="cls-2" points="506.53 16.57 506.53 5.54 506.54 5.54 506.54 3.53 425.3 3.53 425.3 5.44 425.29 5.44 425.29 18.45 425.32 18.45 425.32 18.46 452.79 18.46 452.79 18.46 455.83 18.46 455.83 11.1 452.79 11.1 452.79 16.45 428.34 16.45 428.34 5.54 464.4 5.54 464.4 24.3 467.44 24.3 467.44 5.54 503.49 5.54 503.49 16.57 479.14 16.57 479.14 11.21 476.09 11.21 476.09 18.57 476.09 18.57 476.09 18.57 506.55 18.57 506.55 16.57 506.53 16.57"/><polygon class="cls-2" points="703.4 16.41 703.4 5.39 703.41 5.39 703.41 3.38 622.17 3.38 622.17 5.29 622.16 5.29 622.16 18.3 622.19 18.3 622.19 18.31 649.65 18.31 649.65 18.31 652.7 18.31 652.7 10.95 649.65 10.95 649.65 16.3 625.21 16.3 625.21 5.39 661.26 5.39 661.26 24.14 664.31 24.14 664.31 5.39 700.35 5.39 700.35 16.41 676 16.41 676 11.06 672.96 11.06 672.96 18.42 672.96 18.42 672.96 18.42 703.41 18.42 703.41 16.41 703.4 16.41"/><polygon class="cls-2" points="802.74 11.1 802.74 22.13 802.75 22.13 802.75 24.13 721.51 24.13 721.51 22.23 721.5 22.23 721.5 9.21 721.53 9.21 721.53 9.21 748.99 9.21 748.99 9.2 752.04 9.2 752.04 16.56 748.99 16.56 748.99 11.21 724.55 11.21 724.55 22.13 760.6 22.13 760.6 3.37 763.65 3.37 763.65 22.13 799.69 22.13 799.69 11.1 775.34 11.1 775.34 16.46 772.29 16.46 772.29 9.1 772.3 9.1 772.3 9.09 802.75 9.09 802.75 11.1 802.74 11.1"/><polygon class="cls-2" points="603.1 11.22 603.1 22.24 603.11 22.24 603.11 24.25 521.87 24.25 521.87 22.34 521.86 22.34 521.86 9.33 521.89 9.33 521.89 9.33 549.35 9.33 549.35 9.32 552.4 9.32 552.4 16.68 549.35 16.68 549.35 11.33 524.91 11.33 524.91 22.24 560.96 22.24 560.96 3.49 564.01 3.49 564.01 22.24 600.05 22.24 600.05 11.22 575.7 11.22 575.7 16.58 572.65 16.58 572.65 9.21 572.66 9.21 572.66 9.21 603.11 9.21 603.11 11.22 603.1 11.22"/><polygon class="cls-2" points="407.35 11.23 407.35 22.25 407.36 22.25 407.36 24.26 326.11 24.26 326.11 22.35 326.11 22.35 326.11 9.34 326.13 9.34 326.13 9.33 353.6 9.33 353.6 9.33 356.65 9.33 356.65 16.69 353.6 16.69 353.6 11.34 329.15 11.34 329.15 22.25 365.21 22.25 365.21 3.5 368.26 3.5 368.26 22.25 404.3 22.25 404.3 11.23 379.95 11.23 379.95 16.58 376.9 16.58 376.9 9.22 376.91 9.22 376.91 9.22 407.36 9.22 407.36 11.23 407.35 11.23"/><polygon class="cls-2" points="210.21 11.21 210.21 22.24 210.22 22.24 210.22 24.25 128.98 24.25 128.98 22.34 128.97 22.34 128.97 9.33 129 9.33 129 9.32 156.46 9.32 156.46 9.32 159.51 9.32 159.51 16.68 156.46 16.68 156.46 11.33 132.02 11.33 132.02 22.24 168.07 22.24 168.07 3.48 171.12 3.48 171.12 22.24 207.16 22.24 207.16 11.21 182.81 11.21 182.81 16.57 179.76 16.57 179.76 9.21 179.77 9.21 179.77 9.21 210.22 9.21 210.22 11.21 210.21 11.21"/></svg>