<svg id="Layer_1" data-name="Layer 1" xmlns="http://www.w3.org/2000/svg" xmlns:xlink="http://www.w3.org/1999/xlink" viewBox="0 0 830.18 582.25"><defs><style>.cls-1{fill:url(#linear-gradient);}.cls-2{fill:url(#linear-gradient-2);}.cls-3{fill:url(#linear-gradient-3);}.cls-4{fill:url(#linear-gradient-4);}.cls-5{fill:url(#linear-gradient-5);}.cls-6{fill:url(#linear-gradient-6);}.cls-7{fill:url(#linear-gradient-7);}.cls-8{fill:url(#linear-gradient-8);}.cls-9{fill:url(#linear-gradient-9);}.cls-10{fill:url(#linear-gradient-10);}.cls-11{fill:url(#linear-gradient-11);}.cls-12{fill:url(#linear-gradient-12);}.cls-13{fill:url(#linear-gradient-13);}.cls-14{fill:url(#linear-gradient-14);}.cls-15{fill:url(#linear-gradient-15);}.cls-16{fill:url(#linear-gradient-16);}.cls-17{fill:url(#linear-gradient-17);}.cls-18{fill:url(#linear-gradient-18);}.cls-19{fill:url(#linear-gradient-19);}.cls-20{fill:url(#linear-gradient-20);}.cls-21{fill:url(#linear-gradient-21);}.cls-22{fill:url(#linear-gradient-22);}.cls-23{fill:url(#linear-gradient-23);}.cls-24{fill:url(#linear-gradient-24);}.cls-25{fill:url(#linear-gradient-25);}.cls-26{fill:url(#linear-gradient-26);}.cls-27{fill:url(#linear-gradient-27);}.cls-28{fill:url(#linear-gradient-28);}.cls-29{fill:url(#linear-gradient-29);}.cls-30{fill:url(#linear-gradient-30);}.cls-31{fill:url(#linear-gradient-31);}.cls-32{fill:url(#linear-gradient-32);}.cls-33{fill:url(#linear-gradient-33);}.cls-34{fill:url(#linear-gradient-34);}.cls-35{fill:url(#linear-gradient-35);}.cls-36{fill:url(#linear-gradient-36);}.cls-37{fill:url(#linear-gradient-37);}.cls-38{fill:url(#linear-gradient-38);}.cls-39{fill:url(#linear-gradient-39);}.cls-40{fill:url(#linear-gradient-40);}.cls-41{fill:url(#linear-gradient-41);}.cls-42{fill:url(#linear-gradient-42);}.cls-43{fill:url(#linear-gradient-43);}.cls-44{fill:url(#linear-gradient-44);}.cls-45{fill:url(#linear-gradient-45);}.cls-46{fill:url(#linear-gradient-46);}.cls-47{fill:url(#linear-gradient-47);}.cls-48{fill:url(#linear-gradient-48);}.cls-49{fill:url(#linear-gradient-49);}.cls-50{fill:url(#linear-gradient-50);}.cls-51{fill:url(#linear-gradient-51);}.cls-52{fill:url(#linear-gradient-52);}.cls-53{fill:url(#linear-gradient-53);}.cls-54{fill:url(#linear-gradient-54);}.cls-55{fill:url(#linear-gradient-55);}.cls-56{fill:url(#linear-gradient-56);}.cls-57{fill:url(#linear-gradient-57);}.cls-58{fill:url(#linear-gradient-58);}.cls-59{fill:url(#linear-gradient-59);}.cls-60{fill:url(#linear-gradient-60);}.cls-61{fill:url(#linear-gradient-61);}.cls-62{fill:url(#linear-gradient-62);}.cls-63{fill:url(#linear-gradient-63);}.cls-64{fill:url(#linear-gradient-64);}.cls-65{fill:url(#linear-gradient-65);}.cls-66{fill:url(#linear-gradient-66);}.cls-67{fill:url(#linear-gradient-67);}.cls-68{fill:url(#linear-gradient-68);}.cls-69{fill:url(#linear-gradient-69);}.cls-70{fill:url(#linear-gradient-70);}.cls-71{fill:url(#linear-gradient-71);}.cls-72{fill:url(#linear-gradient-72);}.cls-73{fill:url(#linear-gradient-73);}.cls-74{fill:url(#linear-gradient-74);}.cls-75{fill:url(#linear-gradient-75);}.cls-76{fill:url(#linear-gradient-76);}</style><linearGradient id="linear-gradient" x1="0.08" y1="96.54" x2="8" y2="96.54" gradientUnits="userSpaceOnUse"><stop offset="0.07" stop-color="#d6b329"/><stop offset="0.39" stop-color="#fff"/><stop offset="0.71" stop-color="#a8964f"/></linearGradient><linearGradient id="linear-gradient-2" x1="192.68" y1="-1.08" x2="199.82" y2="-1.08" gradientTransform="translate(-127.81 41.6)" xlink:href="#linear-gradient"/><linearGradient id="linear-gradient-3" x1="221.01" y1="353.54" x2="228.15" y2="353.54" gradientTransform="translate(198.48 -341.36)" xlink:href="#linear-gradient"/><linearGradient id="linear-gradient-4" x1="46.84" y1="39.28" x2="54.75" y2="39.28" xlink:href="#linear-gradient"/><linearGradient id="linear-gradient-5" x1="113.45" y1="25.33" x2="121.37" y2="25.33" xlink:href="#linear-gradient"/><linearGradient id="linear-gradient-6" x1="151.03" y1="-22.31" x2="158.17" y2="-22.31" gradientTransform="translate(-107.39 104.48)" xlink:href="#linear-gradient"/><linearGradient id="linear-gradient-7" x1="206.7" y1="44.07" x2="213.84" y2="44.07" gradientTransform="translate(-96.67 -17.58)" xlink:href="#linear-gradient"/><linearGradient id="linear-gradient-8" x1="90.55" y1="38.31" x2="98.46" y2="38.31" xlink:href="#linear-gradient"/><linearGradient id="linear-gradient-9" x1="166.74" y1="-0.6" x2="173.88" y2="-0.6" gradientTransform="translate(-101.39 67.05)" xlink:href="#linear-gradient"/><linearGradient id="linear-gradient-10" x1="24.14" y1="66.06" x2="32.06" y2="66.06" xlink:href="#linear-gradient"/><linearGradient id="linear-gradient-11" x1="517.52" y1="103.97" x2="525.44" y2="103.97" gradientTransform="matrix(1, 0, 0, -1, 312.38, 207.94)" xlink:href="#linear-gradient"/><linearGradient id="linear-gradient-12" x1="193.45" y1="508.64" x2="200.59" y2="508.64" gradientTransform="matrix(1, 0, 0, -1, 580.16, 548.37)" xlink:href="#linear-gradient"/><linearGradient id="linear-gradient-13" x1="564.27" y1="46.7" x2="572.19" y2="46.7" gradientTransform="matrix(1, 0, 0, -1, 218.87, 93.4)" xlink:href="#linear-gradient"/><linearGradient id="linear-gradient-14" x1="630.89" y1="32.76" x2="638.8" y2="32.76" gradientTransform="matrix(1, 0, 0, -1, 85.65, 65.52)" xlink:href="#linear-gradient"/><linearGradient id="linear-gradient-15" x1="151.8" y1="487.4" x2="158.94" y2="487.4" gradientTransform="matrix(1, 0, 0, -1, 643.04, 568.79)" xlink:href="#linear-gradient"/><linearGradient id="linear-gradient-16" x1="207.47" y1="553.79" x2="214.62" y2="553.79" gradientTransform="matrix(1, 0, 0, -1, 520.98, 579.51)" xlink:href="#linear-gradient"/><linearGradient id="linear-gradient-17" x1="607.98" y1="45.73" x2="615.9" y2="45.73" gradientTransform="matrix(1, 0, 0, -1, 131.46, 91.46)" xlink:href="#linear-gradient"/><linearGradient id="linear-gradient-18" x1="167.51" y1="509.12" x2="174.66" y2="509.12" gradientTransform="matrix(1, 0, 0, -1, 605.61, 574.8)" xlink:href="#linear-gradient"/><linearGradient id="linear-gradient-19" x1="541.58" y1="73.49" x2="549.49" y2="73.49" gradientTransform="matrix(1, 0, 0, -1, 264.26, 146.97)" xlink:href="#linear-gradient"/><linearGradient id="linear-gradient-20" x1="25.49" y1="124.38" x2="33.4" y2="124.38" xlink:href="#linear-gradient"/><linearGradient id="linear-gradient-21" x1="137.53" y1="-9.71" x2="144.67" y2="-9.71" gradientTransform="translate(-81.29 105.37)" xlink:href="#linear-gradient"/><linearGradient id="linear-gradient-22" x1="70.43" y1="52.79" x2="78.35" y2="52.79" xlink:href="#linear-gradient"/><linearGradient id="linear-gradient-23" x1="206.85" y1="-21.83" x2="213.99" y2="-21.83" gradientTransform="translate(-162.73 48.16)" xlink:href="#linear-gradient"/><linearGradient id="linear-gradient-24" x1="1.78" y1="11" x2="9.7" y2="11" xlink:href="#linear-gradient"/><linearGradient id="linear-gradient-25" x1="221.35" y1="-43.5" x2="228.49" y2="-43.5" gradientTransform="translate(-198.9 55.35)" xlink:href="#linear-gradient"/><linearGradient id="linear-gradient-26" x1="26.73" y1="24.73" x2="34.65" y2="24.73" xlink:href="#linear-gradient"/><linearGradient id="linear-gradient-27" x1="179.13" y1="22.25" x2="186.27" y2="22.25" gradientTransform="translate(-90.92 31.81)" xlink:href="#linear-gradient"/><linearGradient id="linear-gradient-28" x1="133.49" y1="32.38" x2="141.4" y2="32.38" xlink:href="#linear-gradient"/><linearGradient id="linear-gradient-29" x1="-252.53" y1="132.62" x2="-244.61" y2="132.62" gradientTransform="matrix(1, 0, 0, -1, 1057, 265.24)" xlink:href="#linear-gradient"/><linearGradient id="linear-gradient-30" x1="137.49" y1="-295.45" x2="144.63" y2="-295.45" gradientTransform="matrix(1, 0, 0, -1, 644.72, -199.75)" xlink:href="#linear-gradient"/><linearGradient id="linear-gradient-31" x1="-207.59" y1="61.03" x2="-199.67" y2="61.03" gradientTransform="matrix(1, 0, 0, -1, 967.12, 122.07)" xlink:href="#linear-gradient"/><linearGradient id="linear-gradient-32" x1="206.81" y1="-307.56" x2="213.95" y2="-307.56" gradientTransform="matrix(1, 0, 0, -1, 587.51, -281.18)" xlink:href="#linear-gradient"/><linearGradient id="linear-gradient-33" x1="-276.23" y1="19.24" x2="-268.32" y2="19.24" gradientTransform="matrix(1, 0, 0, -1, 1104.41, 38.48)" xlink:href="#linear-gradient"/><linearGradient id="linear-gradient-34" x1="221.3" y1="-329.24" x2="228.45" y2="-329.24" gradientTransform="matrix(1, 0, 0, -1, 594.7, -317.35)" xlink:href="#linear-gradient"/><linearGradient id="linear-gradient-35" x1="-251.29" y1="32.97" x2="-243.37" y2="32.97" gradientTransform="matrix(1, 0, 0, -1, 1054.51, 65.95)" xlink:href="#linear-gradient"/><linearGradient id="linear-gradient-36" x1="179.08" y1="-263.48" x2="186.23" y2="-263.48" gradientTransform="matrix(1, 0, 0, -1, 571.16, -209.38)" xlink:href="#linear-gradient"/><linearGradient id="linear-gradient-37" x1="-144.53" y1="40.62" x2="-136.62" y2="40.62" gradientTransform="matrix(1, 0, 0, -1, 841, 81.24)" xlink:href="#linear-gradient"/><linearGradient id="linear-gradient-38" x1="206.05" y1="353.18" x2="213.19" y2="353.18" gradientTransform="translate(213.08 -326.03)" xlink:href="#linear-gradient"/><linearGradient id="linear-gradient-39" x1="7.8" y1="318.38" x2="15.72" y2="318.38" gradientTransform="matrix(1, 0, 0, -1, -7.72, 804.09)" xlink:href="#linear-gradient"/><linearGradient id="linear-gradient-40" x1="-20.96" y1="-1.08" x2="-13.82" y2="-1.08" gradientTransform="matrix(1, 0, 0, -1, 85.83, 557.05)" xlink:href="#linear-gradient"/><linearGradient id="linear-gradient-41" x1="7.37" y1="353.54" x2="14.51" y2="353.54" gradientTransform="matrix(1, 0, 0, -1, 412.12, 940.01)" xlink:href="#linear-gradient"/><linearGradient id="linear-gradient-42" x1="54.55" y1="261.11" x2="62.47" y2="261.11" gradientTransform="matrix(1, 0, 0, -1, -7.72, 804.09)" xlink:href="#linear-gradient"/><linearGradient id="linear-gradient-43" x1="121.17" y1="247.17" x2="129.08" y2="247.17" gradientTransform="matrix(1, 0, 0, -1, -7.72, 804.09)" xlink:href="#linear-gradient"/><linearGradient id="linear-gradient-44" x1="-62.61" y1="-22.31" x2="-55.47" y2="-22.31" gradientTransform="matrix(1, 0, 0, -1, 106.25, 494.17)" xlink:href="#linear-gradient"/><linearGradient id="linear-gradient-45" x1="-6.94" y1="44.07" x2="0.2" y2="44.07" gradientTransform="matrix(1, 0, 0, -1, 116.96, 616.23)" xlink:href="#linear-gradient"/><linearGradient id="linear-gradient-46" x1="98.26" y1="260.14" x2="106.18" y2="260.14" gradientTransform="matrix(1, 0, 0, -1, -7.72, 804.09)" xlink:href="#linear-gradient"/><linearGradient id="linear-gradient-47" x1="-46.9" y1="-0.6" x2="-39.76" y2="-0.6" gradientTransform="matrix(1, 0, 0, -1, 112.25, 531.6)" xlink:href="#linear-gradient"/><linearGradient id="linear-gradient-48" x1="31.86" y1="287.9" x2="39.78" y2="287.9" gradientTransform="matrix(1, 0, 0, -1, -7.72, 804.09)" xlink:href="#linear-gradient"/><linearGradient id="linear-gradient-49" x1="517.52" y1="317.61" x2="525.44" y2="317.61" gradientTransform="translate(312.38 177.08)" xlink:href="#linear-gradient"/><linearGradient id="linear-gradient-50" x1="-20.19" y1="508.64" x2="-13.04" y2="508.64" gradientTransform="translate(793.79 50.28)" xlink:href="#linear-gradient"/><linearGradient id="linear-gradient-51" x1="564.27" y1="260.34" x2="572.19" y2="260.34" gradientTransform="translate(218.87 291.61)" xlink:href="#linear-gradient"/><linearGradient id="linear-gradient-52" x1="630.89" y1="246.39" x2="638.8" y2="246.39" gradientTransform="translate(85.65 319.5)" xlink:href="#linear-gradient"/><linearGradient id="linear-gradient-53" x1="-61.83" y1="487.4" x2="-54.69" y2="487.4" gradientTransform="translate(856.67 29.86)" xlink:href="#linear-gradient"/><linearGradient id="linear-gradient-54" x1="-6.16" y1="553.79" x2="0.98" y2="553.79" gradientTransform="translate(734.62 19.14)" xlink:href="#linear-gradient"/><linearGradient id="linear-gradient-55" x1="607.98" y1="259.37" x2="615.9" y2="259.37" gradientTransform="translate(131.46 293.55)" xlink:href="#linear-gradient"/><linearGradient id="linear-gradient-56" x1="-46.12" y1="509.12" x2="-38.98" y2="509.12" gradientTransform="translate(819.25 23.85)" xlink:href="#linear-gradient"/><linearGradient id="linear-gradient-57" x1="541.58" y1="287.12" x2="549.49" y2="287.12" gradientTransform="translate(264.26 238.04)" xlink:href="#linear-gradient"/><linearGradient id="linear-gradient-58" x1="33.21" y1="346.22" x2="41.12" y2="346.22" gradientTransform="matrix(1, 0, 0, -1, -7.72, 804.09)" xlink:href="#linear-gradient"/><linearGradient id="linear-gradient-59" x1="-76.11" y1="-9.71" x2="-68.97" y2="-9.71" gradientTransform="matrix(1, 0, 0, -1, 132.35, 493.28)" xlink:href="#linear-gradient"/><linearGradient id="linear-gradient-60" x1="78.15" y1="274.63" x2="86.06" y2="274.63" gradientTransform="matrix(1, 0, 0, -1, -7.72, 804.09)" xlink:href="#linear-gradient"/><linearGradient id="linear-gradient-61" x1="-6.78" y1="-21.83" x2="0.36" y2="-21.83" gradientTransform="matrix(1, 0, 0, -1, 50.91, 550.49)" xlink:href="#linear-gradient"/><linearGradient id="linear-gradient-62" x1="9.5" y1="232.84" x2="17.42" y2="232.84" gradientTransform="matrix(1, 0, 0, -1, -7.72, 804.09)" xlink:href="#linear-gradient"/><linearGradient id="linear-gradient-63" x1="7.71" y1="-43.5" x2="14.85" y2="-43.5" gradientTransform="matrix(1, 0, 0, -1, 14.74, 543.3)" xlink:href="#linear-gradient"/><linearGradient id="linear-gradient-64" x1="34.45" y1="246.57" x2="42.37" y2="246.57" gradientTransform="matrix(1, 0, 0, -1, -7.72, 804.09)" xlink:href="#linear-gradient"/><linearGradient id="linear-gradient-65" x1="-34.51" y1="22.25" x2="-27.37" y2="22.25" gradientTransform="matrix(1, 0, 0, -1, 122.71, 566.84)" xlink:href="#linear-gradient"/><linearGradient id="linear-gradient-66" x1="141.2" y1="254.22" x2="149.12" y2="254.22" gradientTransform="matrix(1, 0, 0, -1, -7.72, 804.09)" xlink:href="#linear-gradient"/><linearGradient id="linear-gradient-67" x1="-252.53" y1="346.26" x2="-244.61" y2="346.26" gradientTransform="translate(1057 119.77)" xlink:href="#linear-gradient"/><linearGradient id="linear-gradient-68" x1="-76.15" y1="-295.45" x2="-69.01" y2="-295.45" gradientTransform="translate(858.36 798.4)" xlink:href="#linear-gradient"/><linearGradient id="linear-gradient-69" x1="-207.59" y1="274.67" x2="-199.67" y2="274.67" gradientTransform="translate(967.12 262.95)" xlink:href="#linear-gradient"/><linearGradient id="linear-gradient-70" x1="-6.82" y1="-307.56" x2="0.32" y2="-307.56" gradientTransform="translate(801.15 879.83)" xlink:href="#linear-gradient"/><linearGradient id="linear-gradient-71" x1="-276.23" y1="232.88" x2="-268.32" y2="232.88" gradientTransform="translate(1104.41 346.53)" xlink:href="#linear-gradient"/><linearGradient id="linear-gradient-72" x1="7.67" y1="-329.24" x2="14.81" y2="-329.24" gradientTransform="translate(808.33 916)" xlink:href="#linear-gradient"/><linearGradient id="linear-gradient-73" x1="-251.29" y1="246.61" x2="-243.37" y2="246.61" gradientTransform="translate(1054.51 319.06)" xlink:href="#linear-gradient"/><linearGradient id="linear-gradient-74" x1="-34.55" y1="-263.48" x2="-27.41" y2="-263.48" gradientTransform="translate(784.8 808.03)" xlink:href="#linear-gradient"/><linearGradient id="linear-gradient-75" x1="-144.53" y1="254.26" x2="-136.62" y2="254.26" gradientTransform="translate(841 303.77)" xlink:href="#linear-gradient"/><linearGradient id="linear-gradient-76" x1="-7.59" y1="353.18" x2="-0.45" y2="353.18" gradientTransform="matrix(1, 0, 0, -1, 426.72, 924.69)" xlink:href="#linear-gradient"/></defs><path class="cls-1" d="M6.08,28.84H8a0,0,0,0,1,0,0V164.25a0,0,0,0,1,0,0H.08a0,0,0,0,1,0,0V34.84a6,6,0,0,1,6-6Z"/><path class="cls-2" d="M64.87-20.21H66a6,6,0,0,1,6,6V101.23a0,0,0,0,1,0,0H70.87a6,6,0,0,1-6-6V-20.21A0,0,0,0,1,64.87-20.21Z" transform="translate(20.21 100.75) rotate(-90)"/><path class="cls-3" d="M419.49-356.1h1.14a6,6,0,0,1,6,6V374.47a6,6,0,0,1-6,6h-1.14a0,0,0,0,1,0,0V-356.1A0,0,0,0,1,419.49-356.1Z" transform="translate(403.16 427.04) rotate(-90)"/><path class="cls-4" d="M52.84,1h1.92a0,0,0,0,1,0,0V71.56a6,6,0,0,1-6,6H46.84a0,0,0,0,1,0,0V7a6,6,0,0,1,6-6Z"/><path class="cls-5" d="M113.45,14.83h1.92a6,6,0,0,1,6,6v9a6,6,0,0,1-6,6h-1.92a0,0,0,0,1,0,0v-21A0,0,0,0,1,113.45,14.83Z"/><path class="cls-6" d="M49.64,66.82h1.14a0,0,0,0,1,0,0V97.5a0,0,0,0,1,0,0H49.64a6,6,0,0,1-6-6V72.82a6,6,0,0,1,6-6Z" transform="translate(-42.67 121.17) rotate(-90)"/><path class="cls-7" d="M110,11.09h1.14a6,6,0,0,1,6,6V35.89a6,6,0,0,1-6,6H110a0,0,0,0,1,0,0V11.09A0,0,0,0,1,110,11.09Z" transform="translate(79.39 131.89) rotate(-90)"/><path class="cls-8" d="M96.55,14.77h1.92a0,0,0,0,1,0,0V55.85a6,6,0,0,1-6,6H90.55a0,0,0,0,1,0,0V20.77a6,6,0,0,1,6-6Z"/><path class="cls-9" d="M65.35,29.2h1.14a6,6,0,0,1,6,6v68.5a0,0,0,0,1,0,0H71.35a6,6,0,0,1-6-6V29.2a0,0,0,0,1,0,0Z" transform="translate(-5.25 127.18) rotate(-90)"/><path class="cls-10" d="M30.14,54.72h1.92a0,0,0,0,1,0,0V77.41a0,0,0,0,1,0,0H30.14a6,6,0,0,1-6-6V60.72A6,6,0,0,1,30.14,54.72Z"/><path class="cls-11" d="M829.9,36.26h7.92a0,0,0,0,1,0,0V171.68a0,0,0,0,1,0,0H835.9a6,6,0,0,1-6-6V36.26a0,0,0,0,1,0,0Z" transform="translate(1660 199.74) rotate(-180)"/><path class="cls-12" d="M779.61-21h1.14a0,0,0,0,1,0,0V94.46a6,6,0,0,1-6,6h-1.14a0,0,0,0,1,0,0V-15A6,6,0,0,1,779.61-21Z" transform="translate(729.72 808.72) rotate(-90)"/><path class="cls-13" d="M783.15,8.42h1.92a6,6,0,0,1,6,6V85a0,0,0,0,1,0,0h-1.92a6,6,0,0,1-6-6V8.42A0,0,0,0,1,783.15,8.42Z" transform="translate(1566.49 85.2) rotate(-180)"/><path class="cls-14" d="M716.53,22.25h1.92a6,6,0,0,1,6,6v9a6,6,0,0,1-6,6h-1.92a0,0,0,0,1,0,0v-21A0,0,0,0,1,716.53,22.25Z" transform="translate(1433.27 57.32) rotate(-180)"/><path class="cls-15" d="M800.84,66H802a0,0,0,0,1,0,0V96.73a0,0,0,0,1,0,0h-1.14a6,6,0,0,1-6-6V72A6,6,0,0,1,800.84,66Z" transform="translate(709.3 871.6) rotate(-90)"/><path class="cls-16" d="M728.45,10.32h1.14a6,6,0,0,1,6,6V35.11a6,6,0,0,1-6,6h-1.14a0,0,0,0,1,0,0V10.32a0,0,0,0,1,0,0Z" transform="translate(698.59 749.54) rotate(-90)"/><path class="cls-17" d="M739.44,22.19h1.92a6,6,0,0,1,6,6V69.27a0,0,0,0,1,0,0h-1.92a6,6,0,0,1-6-6V22.19A0,0,0,0,1,739.44,22.19Z" transform="translate(1479.08 83.27) rotate(-180)"/><path class="cls-18" d="M779.12,28.43h1.14a0,0,0,0,1,0,0v68.5a6,6,0,0,1-6,6h-1.14a0,0,0,0,1,0,0V34.43a6,6,0,0,1,6-6Z" transform="translate(703.3 834.17) rotate(-90)"/><path class="cls-19" d="M811.84,62.14h1.92a0,0,0,0,1,0,0V84.83a0,0,0,0,1,0,0h-1.92a6,6,0,0,1-6-6V68.14A6,6,0,0,1,811.84,62.14Z" transform="translate(1611.88 138.78) rotate(-180)"/><path class="cls-20" d="M31.49,84H33.4a0,0,0,0,1,0,0v80.85a0,0,0,0,1,0,0H25.49a0,0,0,0,1,0,0V90A6,6,0,0,1,31.49,84Z"/><path class="cls-21" d="M56.24,69.29h1.14a6,6,0,0,1,6,6V122a0,0,0,0,1,0,0H62.24a6,6,0,0,1-6-6V69.29A0,0,0,0,1,56.24,69.29Z" transform="translate(-43.57 147.27) rotate(-90)"/><path class="cls-22" d="M70.43,14.51h1.92a6,6,0,0,1,6,6V85.07a6,6,0,0,1-6,6H70.43a0,0,0,0,1,0,0V14.51A0,0,0,0,1,70.43,14.51Z"/><path class="cls-23" d="M50.13-12.11h1.14a0,0,0,0,1,0,0V58.78a6,6,0,0,1-6,6H44.13a0,0,0,0,1,0,0V-6.11a6,6,0,0,1,6-6Z" transform="translate(13.64 65.83) rotate(-90)"/><path class="cls-24" d="M7.78.22H9.7a0,0,0,0,1,0,0V21.78a0,0,0,0,1,0,0H7.78a6,6,0,0,1-6-6V6.22A6,6,0,0,1,7.78.22Z"/><path class="cls-25" d="M22.45-4.55h1.14a6,6,0,0,1,6,6V22.24a6,6,0,0,1-6,6H22.45a0,0,0,0,1,0,0V-4.55A0,0,0,0,1,22.45-4.55Z" transform="translate(6.46 29.67) rotate(-90)"/><path class="cls-26" d="M26.73,0h1.92a6,6,0,0,1,6,6V49.47a0,0,0,0,1,0,0H32.73a6,6,0,0,1-6-6V0A0,0,0,0,1,26.73,0Z"/><path class="cls-27" d="M94.2-3.16h1.14a0,0,0,0,1,0,0V111.29a0,0,0,0,1,0,0H94.2a6,6,0,0,1-6-6V2.84a6,6,0,0,1,6-6Z" transform="translate(29.99 137.64) rotate(-90)"/><path class="cls-28" d="M139.49,15.36h1.92a0,0,0,0,1,0,0V43.41a6,6,0,0,1-6,6h-1.92a0,0,0,0,1,0,0V21.36A6,6,0,0,1,139.49,15.36Z"/><path class="cls-29" d="M804.47,92.19h7.92a0,0,0,0,1,0,0V173a0,0,0,0,1,0,0h-1.92a6,6,0,0,1-6-6V92.19a0,0,0,0,1,0,0Z" transform="translate(1609.14 257.04) rotate(-180)"/><path class="cls-30" d="M788.21,69.33h1.14a0,0,0,0,1,0,0v46.74a6,6,0,0,1-6,6h-1.14a0,0,0,0,1,0,0V75.33A6,6,0,0,1,788.21,69.33Z" transform="translate(682.36 873.28) rotate(-90)"/><path class="cls-31" d="M759.53,22.75h1.92a6,6,0,0,1,6,6V93.31a6,6,0,0,1-6,6h-1.92a0,0,0,0,1,0,0V22.75A0,0,0,0,1,759.53,22.75Z" transform="translate(1519.25 113.87) rotate(-180)"/><path class="cls-32" d="M794.32-12.07h1.14a6,6,0,0,1,6,6V64.82a0,0,0,0,1,0,0h-1.14a6,6,0,0,1-6-6V-12.07a0,0,0,0,1,0,0Z" transform="translate(763.8 816.07) rotate(-90)"/><path class="cls-33" d="M834.18,8.46h1.92a0,0,0,0,1,0,0V30a0,0,0,0,1,0,0h-1.92a6,6,0,0,1-6-6V14.46A6,6,0,0,1,834.18,8.46Z" transform="translate(1656.55 30.28) rotate(-180)"/><path class="cls-34" d="M816-4.51h1.14a6,6,0,0,1,6,6V22.28a6,6,0,0,1-6,6H816a0,0,0,0,1,0,0V-4.51A0,0,0,0,1,816-4.51Z" transform="translate(799.97 823.26) rotate(-90)"/><path class="cls-35" d="M809.23,8.24h1.92a0,0,0,0,1,0,0V51.71a6,6,0,0,1-6,6h-1.92a0,0,0,0,1,0,0V14.24A6,6,0,0,1,809.23,8.24Z" transform="translate(1606.65 57.75) rotate(-180)"/><path class="cls-36" d="M756.25-3.12h1.14a0,0,0,0,1,0,0V111.33a0,0,0,0,1,0,0h-1.14a6,6,0,0,1-6-6V2.88a6,6,0,0,1,6-6Z" transform="translate(692 799.73) rotate(-90)"/><path class="cls-37" d="M696.47,23.6h1.92a6,6,0,0,1,6,6V57.65a0,0,0,0,1,0,0h-1.92a6,6,0,0,1-6-6V23.6a0,0,0,0,1,0,0Z" transform="translate(1393.14 73.04) rotate(-180)"/><path class="cls-38" d="M419.13-254.54h1.14a6,6,0,0,1,6,6V302.83a6,6,0,0,1-6,6h-1.14a0,0,0,0,1,0,0V-254.54A0,0,0,0,1,419.13-254.54Z" transform="translate(387.84 441.65) rotate(-90)"/><path class="cls-39" d="M.08,418H8a0,0,0,0,1,0,0V553.42a0,0,0,0,1,0,0H6.08a6,6,0,0,1-6-6V418A0,0,0,0,1,.08,418Z"/><path class="cls-40" d="M70.87,497.42H72a0,0,0,0,1,0,0V612.86a6,6,0,0,1-6,6H64.87a0,0,0,0,1,0,0V503.42A6,6,0,0,1,70.87,497.42Z" transform="translate(618.86 481.5) rotate(90)"/><path class="cls-41" d="M419.49,218.18h1.14a6,6,0,0,1,6,6V948.75a6,6,0,0,1-6,6h-1.14a0,0,0,0,1,0,0V218.18A0,0,0,0,1,419.49,218.18Z" transform="translate(1001.81 155.21) rotate(90)"/><path class="cls-42" d="M46.84,504.7h1.92a6,6,0,0,1,6,6v70.56a0,0,0,0,1,0,0H52.84a6,6,0,0,1-6-6V504.7A0,0,0,0,1,46.84,504.7Z"/><path class="cls-43" d="M113.45,546.41h1.92a6,6,0,0,1,6,6v9a6,6,0,0,1-6,6h-1.92a0,0,0,0,1,0,0v-21A0,0,0,0,1,113.45,546.41Z"/><path class="cls-44" d="M49.64,501.15h1.14a0,0,0,0,1,0,0v30.69a0,0,0,0,1,0,0H49.64a6,6,0,0,1-6-6V507.15a6,6,0,0,1,6-6Z" transform="translate(555.98 461.08) rotate(90)"/><path class="cls-45" d="M110,556.76h1.14a6,6,0,0,1,6,6v18.79a6,6,0,0,1-6,6H110a0,0,0,0,1,0,0V556.76A0,0,0,0,1,110,556.76Z" transform="translate(678.04 450.37) rotate(90)"/><path class="cls-46" d="M90.55,520.41h1.92a6,6,0,0,1,6,6v41.08a0,0,0,0,1,0,0H96.55a6,6,0,0,1-6-6V520.41A0,0,0,0,1,90.55,520.41Z"/><path class="cls-47" d="M71.35,494.95h1.14a0,0,0,0,1,0,0v68.5a6,6,0,0,1-6,6H65.35a0,0,0,0,1,0,0v-68.5A6,6,0,0,1,71.35,494.95Z" transform="translate(593.41 455.08) rotate(90)"/><path class="cls-48" d="M30.14,504.85h1.92a0,0,0,0,1,0,0v22.69a0,0,0,0,1,0,0H30.14a6,6,0,0,1-6-6V510.85A6,6,0,0,1,30.14,504.85Z"/><path class="cls-49" d="M835.9,427h1.92a0,0,0,0,1,0,0V562.39a0,0,0,0,1,0,0H829.9a0,0,0,0,1,0,0V433A6,6,0,0,1,835.9,427Z" transform="translate(1660 981.17) rotate(180)"/><path class="cls-50" d="M773.61,498.19h1.14a6,6,0,0,1,6,6V619.63a0,0,0,0,1,0,0h-1.14a6,6,0,0,1-6-6V498.19a0,0,0,0,1,0,0Z" transform="translate(1328.37 -226.47) rotate(90)"/><path class="cls-51" d="M789.15,513.67h1.92a0,0,0,0,1,0,0v70.56a6,6,0,0,1-6,6h-1.92a0,0,0,0,1,0,0V519.67A6,6,0,0,1,789.15,513.67Z" transform="translate(1566.49 1095.7) rotate(180)"/><path class="cls-52" d="M716.53,555.39h1.92a6,6,0,0,1,6,6v9a6,6,0,0,1-6,6h-1.92a0,0,0,0,1,0,0v-21a0,0,0,0,1,0,0Z" transform="translate(1433.27 1123.59) rotate(180)"/><path class="cls-53" d="M800.84,501.92H802a0,0,0,0,1,0,0v30.69a0,0,0,0,1,0,0h-1.14a6,6,0,0,1-6-6V507.92a6,6,0,0,1,6-6Z" transform="translate(1307.96 -289.35) rotate(90)"/><path class="cls-54" d="M728.45,557.54h1.14a6,6,0,0,1,6,6v18.79a6,6,0,0,1-6,6h-1.14a0,0,0,0,1,0,0V557.54a0,0,0,0,1,0,0Z" transform="translate(1297.24 -167.29) rotate(90)"/><path class="cls-55" d="M745.44,529.38h1.92a0,0,0,0,1,0,0v41.08a6,6,0,0,1-6,6h-1.92a0,0,0,0,1,0,0V535.38A6,6,0,0,1,745.44,529.38Z" transform="translate(1479.08 1097.64) rotate(180)"/><path class="cls-56" d="M773.12,495.72h1.14a6,6,0,0,1,6,6v68.5a0,0,0,0,1,0,0h-1.14a6,6,0,0,1-6-6v-68.5a0,0,0,0,1,0,0Z" transform="translate(1301.95 -251.92) rotate(90)"/><path class="cls-57" d="M811.84,513.82h1.92a0,0,0,0,1,0,0v22.69a0,0,0,0,1,0,0h-1.92a6,6,0,0,1-6-6V519.82A6,6,0,0,1,811.84,513.82Z" transform="translate(1611.88 1042.13) rotate(180)"/><path class="cls-58" d="M25.49,417.45H33.4a0,0,0,0,1,0,0V498.3a0,0,0,0,1,0,0H31.49a6,6,0,0,1-6-6V417.45A0,0,0,0,1,25.49,417.45Z"/><path class="cls-59" d="M62.24,476.62h1.14a0,0,0,0,1,0,0v46.74a6,6,0,0,1-6,6H56.24a0,0,0,0,1,0,0V482.62A6,6,0,0,1,62.24,476.62Z" transform="translate(555.08 434.98) rotate(90)"/><path class="cls-60" d="M70.43,491.18h1.92a6,6,0,0,1,6,6v64.56a6,6,0,0,1-6,6H70.43a0,0,0,0,1,0,0V491.18a0,0,0,0,1,0,0Z"/><path class="cls-61" d="M44.13,533.87h1.14a6,6,0,0,1,6,6v70.89a0,0,0,0,1,0,0H50.13a6,6,0,0,1-6-6V533.87a0,0,0,0,1,0,0Z" transform="translate(612.29 516.42) rotate(90)"/><path class="cls-62" d="M7.78,560.48H9.7a0,0,0,0,1,0,0V582a0,0,0,0,1,0,0H7.78a6,6,0,0,1-6-6v-9.55A6,6,0,0,1,7.78,560.48Z"/><path class="cls-63" d="M22.45,570.41h1.14a6,6,0,0,1,6,6V597.2a6,6,0,0,1-6,6H22.45a0,0,0,0,1,0,0V570.41A0,0,0,0,1,22.45,570.41Z" transform="translate(605.11 552.59) rotate(90)"/><path class="cls-64" d="M32.73,532.78h1.92a0,0,0,0,1,0,0v43.47a6,6,0,0,1-6,6H26.73a0,0,0,0,1,0,0V538.78A6,6,0,0,1,32.73,532.78Z"/><path class="cls-65" d="M94.2,487.36h1.14a0,0,0,0,1,0,0V601.81a0,0,0,0,1,0,0H94.2a6,6,0,0,1-6-6V493.36A6,6,0,0,1,94.2,487.36Z" transform="translate(628.64 444.62) rotate(90)"/><path class="cls-66" d="M133.49,532.85h1.92a6,6,0,0,1,6,6V566.9a0,0,0,0,1,0,0h-1.92a6,6,0,0,1-6-6V532.85A0,0,0,0,1,133.49,532.85Z"/><path class="cls-67" d="M810.47,425.6h1.92a0,0,0,0,1,0,0v80.85a0,0,0,0,1,0,0h-7.92a0,0,0,0,1,0,0V431.6A6,6,0,0,1,810.47,425.6Z" transform="translate(1609.14 923.86) rotate(180)"/><path class="cls-68" d="M782.21,476.58h1.14a6,6,0,0,1,6,6v46.74a0,0,0,0,1,0,0h-1.14a6,6,0,0,1-6-6V476.58A0,0,0,0,1,782.21,476.58Z" transform="translate(1281.01 -291.03) rotate(90)"/><path class="cls-69" d="M759.53,499.34h1.92a6,6,0,0,1,6,6V569.9a6,6,0,0,1-6,6h-1.92a0,0,0,0,1,0,0V499.34A0,0,0,0,1,759.53,499.34Z" transform="translate(1519.25 1067.04) rotate(180)"/><path class="cls-70" d="M800.32,533.83h1.14a0,0,0,0,1,0,0v70.89a6,6,0,0,1-6,6h-1.14a0,0,0,0,1,0,0V539.83A6,6,0,0,1,800.32,533.83Z" transform="translate(1362.45 -233.82) rotate(90)"/><path class="cls-71" d="M834.18,568.64h1.92a0,0,0,0,1,0,0v21.55a0,0,0,0,1,0,0h-1.92a6,6,0,0,1-6-6v-9.55A6,6,0,0,1,834.18,568.64Z" transform="translate(1656.55 1150.62) rotate(180)"/><path class="cls-72" d="M816,570.37h1.14a6,6,0,0,1,6,6v20.79a6,6,0,0,1-6,6H816a0,0,0,0,1,0,0V570.37a0,0,0,0,1,0,0Z" transform="translate(1398.62 -241.01) rotate(90)"/><path class="cls-73" d="M803.23,540.94h1.92a6,6,0,0,1,6,6v43.47a0,0,0,0,1,0,0h-1.92a6,6,0,0,1-6-6V540.94A0,0,0,0,1,803.23,540.94Z" transform="translate(1606.65 1123.15) rotate(180)"/><path class="cls-74" d="M756.25,487.32h1.14a0,0,0,0,1,0,0V601.77a0,0,0,0,1,0,0h-1.14a6,6,0,0,1-6-6V493.32A6,6,0,0,1,756.25,487.32Z" transform="translate(1290.65 -217.47) rotate(90)"/><path class="cls-75" d="M702.47,541h1.92a0,0,0,0,1,0,0v28.05a6,6,0,0,1-6,6h-1.92a0,0,0,0,1,0,0V547A6,6,0,0,1,702.47,541Z" transform="translate(1393.14 1107.86) rotate(180)"/><path class="cls-76" d="M419.13,289.82h1.14a6,6,0,0,1,6,6V847.19a6,6,0,0,1-6,6h-1.14a0,0,0,0,1,0,0V289.82A0,0,0,0,1,419.13,289.82Z" transform="translate(986.49 140.61) rotate(90)"/></svg>