<svg id="Layer_1" data-name="Layer 1" xmlns="http://www.w3.org/2000/svg" xmlns:xlink="http://www.w3.org/1999/xlink" viewBox="0 0 71 538.88"><defs><style>.cls-1,.cls-2,.cls-3{stroke-miterlimit:10;}.cls-1{fill:url(#linear-gradient);stroke:url(#linear-gradient-2);}.cls-2{fill:url(#linear-gradient-3);stroke:url(#linear-gradient-4);}.cls-3{fill:url(#linear-gradient-5);stroke:url(#linear-gradient-6);}.cls-4{fill:url(#linear-gradient-7);}</style><linearGradient id="linear-gradient" x1="10.5" y1="270.58" x2="60.5" y2="270.58" gradientUnits="userSpaceOnUse"><stop offset="0.07" stop-color="#d6b329"/><stop offset="0.39" stop-color="#fff"/><stop offset="0.71" stop-color="#a8964f"/></linearGradient><linearGradient id="linear-gradient-2" x1="10" y1="270.58" x2="61" y2="270.58" gradientUnits="userSpaceOnUse"><stop offset="0.24" stop-color="#d8b935"/><stop offset="0.49" stop-color="#cfc42b"/><stop offset="0.67" stop-color="#d0c32b"/><stop offset="0.84" stop-color="#cfc42b"/></linearGradient><linearGradient id="linear-gradient-3" x1="0.5" y1="10.5" x2="70.5" y2="10.5" gradientUnits="userSpaceOnUse"><stop offset="0.04" stop-color="#d6b329"/><stop offset="0.4" stop-color="#fff"/><stop offset="0.87" stop-color="#dbbc46"/></linearGradient><linearGradient id="linear-gradient-4" x1="0" y1="10.5" x2="71" y2="10.5" xlink:href="#linear-gradient-2"/><linearGradient id="linear-gradient-5" x1="0.5" y1="528.38" x2="70.5" y2="528.38" gradientUnits="userSpaceOnUse"><stop offset="0.07" stop-color="#d6b329"/><stop offset="0.36" stop-color="#f9f4e7"/><stop offset="0.45" stop-color="#fff"/><stop offset="0.83" stop-color="#b49e48"/></linearGradient><linearGradient id="linear-gradient-6" x1="0" y1="528.38" x2="71" y2="528.38" xlink:href="#linear-gradient-2"/><linearGradient id="linear-gradient-7" x1="5.5" y1="269.44" x2="65.5" y2="269.44" gradientUnits="userSpaceOnUse"><stop offset="0.09" stop-color="#da7db2"/><stop offset="0.4" stop-color="#dad9d9"/><stop offset="0.41" stop-color="#dad2d6"/><stop offset="0.49" stop-color="#daaec7"/><stop offset="0.56" stop-color="#da93bb"/><stop offset="0.62" stop-color="#da83b4"/><stop offset="0.67" stop-color="#da7db2"/><stop offset="0.79" stop-color="#db7db3"/></linearGradient></defs><rect class="cls-1" x="10.5" y="20.58" width="50" height="500"/><path class="cls-2" d="M4.5.5h62a4,4,0,0,1,4,4v15a1,1,0,0,1-1,1H1.5a1,1,0,0,1-1-1V4.5a4,4,0,0,1,4-4Z"/><path class="cls-3" d="M1.5,518.38h68a1,1,0,0,1,1,1v15a4,4,0,0,1-4,4H4.5a4,4,0,0,1-4-4v-15A1,1,0,0,1,1.5,518.38Z"/><rect class="cls-4" x="5.5" y="49.44" width="60" height="440" rx="1"/></svg>